<svg width="97" height="40" viewBox="0 0 97 40" fill="none" xmlns="http://www.w3.org/2000/svg">
  <g clip-path="url(#clip0_1_138)">
    <path d="M32.4654 2.58082C32.9375 1.81462 33.4855 0.920555 33.6818 0.594528C33.8791 0.269414 34.0636 0.000920183 34.0928 6.94053e-06C34.1229 -0.00181954 34.3184 0.357085 34.5284 0.799094C34.7384 1.24019 35.2453 2.29954 35.6553 3.15342C36.0654 4.00731 36.5257 4.97352 36.6782 5.29954C36.8298 5.62557 37.0298 6.03653 37.2882 6.53242L36.6471 7.58265C36.2946 8.15982 35.911 8.77626 35.7951 8.95251C35.6791 9.12877 34.7421 10.6283 33.712 12.2858C32.6818 13.9434 30.7512 17.0457 29.4216 19.1808C28.0919 21.3151 26.006 24.6648 24.7868 26.6237C23.5677 28.5826 21.9421 31.1918 21.175 32.4228C20.4079 33.6539 19.0617 35.811 16.5897 39.7744L13.1084 39.7973C10.8326 39.8119 9.62619 39.7881 9.62619 39.7288C9.62619 39.6785 9.68281 39.5452 9.75131 39.432C9.8198 39.3187 10.8006 37.7269 11.9294 35.8932C13.0591 34.0603 14.9203 31.0393 16.0655 29.1808C17.2107 27.3224 18.4033 25.3909 18.7147 24.8886C19.027 24.3863 19.5238 23.5763 19.8188 23.0895C20.1147 22.6018 20.9485 21.2457 21.6718 20.0758C22.3951 18.905 23.8992 16.4685 25.0142 14.6603C26.1302 12.8521 28.069 9.70776 29.3238 7.67397C30.5786 5.63927 31.9923 3.34795 32.4654 2.58082Z" fill="#56A873" />
    <path d="M20.0553 7.12595C21.1841 5.29308 22.6325 2.93965 23.2727 1.89764C23.9138 0.855644 24.4553 0.00267551 24.4754 0.00267551C24.4955 0.00267551 24.8563 0.711352 25.2763 1.57802C25.6964 2.44468 26.2974 3.6876 26.6115 4.34057C26.9247 4.99353 27.2818 5.75335 27.4042 6.03006C27.5266 6.30678 27.6005 6.59445 27.5686 6.66933C27.5375 6.74422 27.1786 7.34057 26.7731 7.99353C26.3668 8.6465 25.0499 10.7625 23.8462 12.6967C22.6416 14.631 21.3649 16.6757 21.0069 17.242C20.649 17.8081 20.175 18.568 19.9521 18.9315C19.7293 19.295 18.3567 21.5032 16.902 23.8384C15.4463 26.1735 13.2837 29.6466 12.0947 31.5553C10.9056 33.4639 9.40153 35.8767 8.75222 36.9178C8.1029 37.9589 7.43806 39.0374 6.97779 39.8201H3.50747C1.59879 39.8201 0.0207101 39.789 0.00153204 39.7516C-0.0185593 39.7142 0.161349 39.3753 0.400619 38.9982C0.639889 38.6219 1.7714 36.7927 2.91478 34.9342C4.05907 33.0758 5.80519 30.2402 6.79606 28.6329C7.78692 27.0256 9.63441 24.0256 10.9029 21.9662C12.1705 19.9068 13.3623 17.9753 13.5513 17.6739C13.7413 17.3725 14.8198 15.6255 15.9495 13.7926C17.0782 11.9597 18.9266 8.95883 20.0553 7.12595Z" fill="#C53631" />
    <path d="M40.1814 21.7571C40.1931 21.7737 40.686 23.0387 41.2773 24.569C41.869 26.1005 42.4508 27.6219 42.5704 27.9479C42.7503 28.4402 42.7697 28.5808 42.682 28.7699C42.6236 28.8959 41.2097 31.2995 39.5403 34.1123C37.8709 36.9251 36.4261 39.3605 36.1558 39.8217L32.7083 39.821C30.4718 39.8201 29.2608 39.7881 29.2608 39.7288C29.2608 39.6785 29.7193 38.8877 30.28 37.9708C30.8407 37.0539 31.7476 35.5644 32.2964 34.6603C32.8444 33.7562 33.543 32.6055 33.848 32.1032C34.1531 31.6009 35.6983 29.0612 37.2818 26.4603C38.8654 23.8584 40.1704 21.7416 40.1814 21.7571ZM43.4491 0.00267551C43.4975 0.00279711 43.5697 0.115992 43.6108 0.253817C43.6519 0.391763 44.2343 1.65568 44.9056 3.06203C45.5759 4.46838 46.2243 5.83364 46.5668 6.57339L46.2334 7.10135C46.0497 7.39101 45.1211 8.88133 44.1695 10.4136C43.2179 11.9461 41.5558 14.6164 40.4763 16.3497C39.396 18.083 37.7193 20.7744 36.7494 22.3315C35.7805 23.8886 34.1156 26.5598 33.0517 28.2676C31.9868 29.9753 30.2208 32.811 29.1268 34.569C28.0327 36.3269 26.8553 38.2274 25.8818 39.8201H18.8499L19.048 39.4776C19.1576 39.2895 20.1587 37.6557 21.2729 35.8475C22.3879 34.0393 24.2353 31.0393 25.3795 29.1808C26.5247 27.3224 28.3852 24.3014 29.5158 22.4685C30.6455 20.6356 32.4937 17.6346 33.6234 15.8018C34.7521 13.9689 35.8307 12.2219 36.0188 11.9205C36.2069 11.6191 37.2226 9.97527 38.2747 8.26751C39.3268 6.55976 40.901 4.00175 41.7741 2.58258C42.6462 1.16341 43.4007 0.00267551 43.4491 0.00267551ZM57.7604 28.2064C58.0563 28.0785 58.312 28.0411 58.7129 28.0676C59.0142 28.0868 59.3531 28.1505 59.4663 28.208C59.6508 28.3021 59.6599 28.3368 59.5576 28.545C59.4815 28.7003 59.3978 28.7573 59.3065 28.716C59.2316 28.6822 58.964 28.6318 58.7129 28.6044C58.3777 28.5679 58.1896 28.5954 58.0051 28.7078C57.8672 28.7927 57.7076 28.9534 57.65 29.0667C57.5706 29.2247 57.5752 29.3423 57.6729 29.5779C57.777 29.8272 57.9394 29.9525 58.5677 30.2628C58.9896 30.471 59.4316 30.7553 59.5494 30.8932C59.6663 31.0311 59.7889 31.2986 59.8199 31.4868C59.851 31.6749 59.8309 31.9836 59.7742 32.1717C59.7185 32.3598 59.5485 32.6174 59.3978 32.7425C59.2471 32.8685 58.9494 33.0163 58.7357 33.072C58.5202 33.1286 58.1138 33.1487 57.8225 33.1176C57.5339 33.0875 57.2051 33.0153 57.0919 32.9578C56.9786 32.9012 56.8754 32.85 56.8626 32.8437C56.8491 32.838 56.8802 32.7202 57.0234 32.3315L57.4115 32.4701C57.6252 32.5469 57.954 32.608 58.1421 32.6071C58.3302 32.6062 58.6079 32.5443 58.7585 32.4685C58.9092 32.3936 59.0763 32.2183 59.1293 32.0804C59.1823 31.9425 59.1996 31.7269 59.1677 31.6009C59.1357 31.4758 59.0407 31.2984 58.9567 31.2071C58.8725 31.1158 58.4654 30.8802 58.0508 30.682C57.3576 30.3507 57.282 30.2875 57.103 29.8886C56.9742 29.6018 56.9266 29.3616 56.9622 29.1808C56.9923 29.0301 57.093 28.7889 57.187 28.6437C57.2802 28.4994 57.5386 28.3032 57.7604 28.2064ZM76.7494 28.1306C77.3174 28.1306 77.7741 28.1779 77.9595 28.2555C78.122 28.3249 78.3432 28.4784 78.45 28.598C78.556 28.7176 78.6709 28.9388 78.7047 29.0895C78.7375 29.2402 78.7231 29.4968 78.6711 29.6603C78.619 29.8237 78.4416 30.063 78.2791 30.1936C78.049 30.3761 78.0133 30.442 78.1193 30.4868C78.1942 30.5178 78.3686 30.6374 78.5074 30.7525C78.6453 30.8676 78.8033 31.116 78.8581 31.3041C78.9293 31.5461 78.9302 31.7534 78.8627 32.0119C78.8097 32.2126 78.6729 32.4674 78.5569 32.577C78.4418 32.6875 78.2033 32.8374 78.0279 32.9096C77.8517 32.9826 77.5028 33.0712 77.2517 33.1059C77.0005 33.1416 76.5786 33.1461 75.8362 33.0621V28.1306H76.7494ZM47.3989 28.1306C47.7996 28.1306 47.7996 28.1306 47.9722 28.61C48.0681 28.874 48.3658 29.7377 48.6343 30.5295C48.9037 31.3211 49.1547 31.9684 49.1923 31.9679C49.2298 31.9669 49.3003 31.7918 49.3469 31.5781C49.3943 31.3642 49.6818 30.5012 50.5394 28.1306H50.9503C51.1768 28.1306 51.364 28.1616 51.3677 28.1991C51.3713 28.2365 51.4435 29.3461 51.6809 33.0621L51.4069 33.0637C51.1823 33.0656 51.122 33.0199 51.0709 32.8126C51.0371 32.6738 50.975 31.7907 50.9339 30.85C50.8791 29.5973 50.8325 29.1699 50.7585 29.2519C50.7037 29.3131 50.545 29.6922 50.4053 30.0941C50.2665 30.4959 49.9615 31.3315 49.7295 31.9507C49.3322 33.0082 49.2928 33.0749 49.0782 33.0466C48.8681 33.0192 48.8015 32.872 48.2353 31.19C47.8983 30.1854 47.5896 29.3525 47.5503 29.3397C47.512 29.3275 47.448 29.8415 47.4088 30.4813C47.3695 31.1224 47.3083 31.9653 47.206 33.0637L46.6124 33.0621L46.6572 32.6283C46.6809 32.39 46.7439 31.537 46.796 30.7333C46.8471 29.9297 46.914 29.0155 46.9432 28.7014L46.9971 28.1306H47.3989ZM81.4701 28.1306C81.7631 28.1306 81.8763 28.1708 81.9165 28.2904C81.9458 28.3781 82.3156 29.4676 82.7385 30.7105C83.1613 31.9534 83.5074 32.9918 83.5074 33.0164C83.5074 33.0411 83.3567 33.0521 83.1722 33.0393C82.838 33.0164 82.8353 33.0126 82.3503 31.5553H80.5414L80.0827 33.0637L79.3978 33.0621L80.2373 30.5963L81.0773 28.1306H81.4701ZM56.3841 33.0621H55.6535L55.1512 31.5078H53.4161L52.9138 33.0621H52.5942C52.4179 33.0621 52.2765 33.0274 52.2784 32.9854C52.2811 32.9434 52.6307 31.8849 53.0572 30.6338C53.4827 29.3826 53.8499 28.3078 53.8727 28.2447C53.8964 28.1772 54.0736 28.1313 54.6946 28.1322L56.3841 33.0621ZM61.4069 30.2311L63.7357 30.1854L63.7595 28.1306H64.4206V33.0621H63.7814V30.779H61.4069V33.0621H60.7677V28.1306H61.4069V30.2311ZM66.3195 29.2941C66.6354 29.9352 66.9231 30.4247 66.9587 30.3826C66.9943 30.3405 67.2701 29.8261 68.1193 28.1763L68.4846 28.1434C68.7668 28.1178 68.8371 28.1388 68.7942 28.2347C68.764 28.3034 68.404 28.9346 67.2499 30.916L67.2517 33.0621H66.6124V31.053L65.8362 29.6374C65.4088 28.8594 65.0599 28.2009 65.0599 28.1763C65.0599 28.1516 65.2133 28.1306 65.7448 28.1297L66.3195 29.2941ZM69.7174 28.1306C70.08 28.1306 70.0864 28.137 70.6891 29.0667C71.0234 29.5817 71.5677 30.4548 72.5028 32.0119L72.5432 28.1306H73.0964V33.0621L72.7613 33.0393C72.4389 33.0174 72.4015 32.9752 71.7092 31.8749C71.3147 31.2475 70.7768 30.3644 70.0371 29.095L69.9914 33.0621H69.3521V28.1306H69.7174ZM87.5204 28.3361C87.5185 28.4493 86.9083 29.4256 84.8152 32.4685L87.5247 32.5142V33.0621H83.9631L83.9649 32.8566C83.9668 32.7434 84.5814 31.7589 86.7028 28.6785H84.1458V28.1306H87.5247L87.5204 28.3361ZM92.8745 28.1845C92.9202 28.147 93.4334 28.1297 94.0152 28.1461C95.0051 28.1744 95.0955 28.1927 95.4088 28.4274C95.6416 28.6018 95.7713 28.79 95.8353 29.0438C95.8963 29.2873 95.8963 29.5308 95.8353 29.7744C95.7722 30.0274 95.6316 30.2311 95.3786 30.4365C95.0919 30.6694 95.0426 30.7479 95.1503 30.8018C95.2252 30.8393 95.3485 30.9626 95.4225 31.0758C95.4974 31.189 95.6617 31.6612 95.7878 32.126C95.9147 32.5909 96.0179 32.9918 96.0179 33.0164C96.0179 33.0411 95.8736 33.0621 95.6983 33.0621C95.3859 33.0621 95.3752 33.0493 95.2391 32.537C95.1624 32.2484 95.0592 31.8575 95.0108 31.6694C94.9596 31.4731 94.8152 31.2475 94.6709 31.1416C94.491 31.0082 94.2827 30.9562 93.4608 30.9616V33.0621H92.8216L92.806 30.6575C92.7978 29.2995 92.827 28.2228 92.8745 28.1845ZM91.2152 30.4795C91.6627 31.7741 92.0533 32.889 92.0827 32.9578C92.1248 33.0537 92.0535 33.0749 91.4172 33.0164L90.8581 31.4986L89.1384 31.5553L88.6517 33.0164L88.2937 33.0491C88.0179 33.0747 87.9487 33.0537 87.9925 32.9578C88.0237 32.8886 88.408 31.7748 88.8471 30.4822L89.6455 28.1306L90.4015 28.1249L91.2152 30.4795ZM76.4754 30.6886V32.6064C77.1832 32.6064 77.5321 32.5443 77.7083 32.4694C77.8837 32.3936 78.069 32.2502 78.1193 32.1498C78.1695 32.0491 78.2117 31.8327 78.2135 31.6703C78.2153 31.5069 78.1332 31.2601 78.0309 31.1224C77.9258 30.9799 77.6964 30.832 77.5028 30.7799C77.3147 30.7306 77.006 30.6895 76.8179 30.6886H76.4754ZM54.2964 28.8621C54.259 28.8621 54.091 29.3032 53.9248 29.8438C53.7587 30.3832 53.6071 30.8763 53.5879 30.9397C53.5624 31.0237 53.7412 31.0539 54.2837 31.0539C54.8252 31.0539 55.0053 31.0237 54.9806 30.9397C54.9613 30.8763 54.8161 30.3834 54.6563 29.8438C54.4964 29.3032 54.335 28.8621 54.2964 28.8621ZM81.469 28.8785C81.4572 28.863 81.2946 29.295 81.1074 29.8374C80.9204 30.3806 80.7679 30.8763 80.7677 30.9397C80.7677 31.021 80.9658 31.0539 81.4526 31.0539C81.9394 31.0539 82.1375 31.021 82.1384 30.9397C82.1383 30.8763 81.9932 30.3934 81.8152 29.8667C81.6363 29.339 81.4811 28.8955 81.469 28.8785ZM90.0197 28.977C89.9786 28.9662 89.8108 29.3973 89.6446 29.9359C89.4793 30.4754 89.3459 30.9465 89.3478 30.9854C89.3505 31.0228 89.6599 31.0539 90.0371 31.0539C90.4133 31.0539 90.7211 31.0228 90.7211 30.9854C90.72 30.9465 90.5795 30.4846 90.4071 29.958C90.2354 29.4301 90.0608 28.9889 90.0197 28.977ZM94.1668 28.6018C93.8544 28.5845 93.5613 28.6018 93.5147 28.6402C93.469 28.6785 93.438 29.0932 93.4462 29.5616L93.4617 30.4146C94.5732 30.4146 94.6857 30.3826 94.9331 30.1635C95.1731 29.9507 95.2172 29.8482 95.2153 29.5014C95.2126 29.179 95.1604 29.04 94.9733 28.8621C94.7825 28.6785 94.6225 28.6274 94.1668 28.6018ZM76.4754 28.5881L76.4736 30.2776C77.4599 30.1635 77.6736 30.0877 77.8225 29.937C77.9348 29.8228 78.048 29.6365 78.0736 29.5242C78.0983 29.4108 78.0782 29.2153 78.0279 29.0904C77.9777 28.9644 77.8133 28.7998 77.6626 28.7251C77.512 28.6493 77.1832 28.5881 76.9321 28.5881H76.4754ZM61.4298 17.3314C61.4517 21.3123 61.4581 21.4311 61.6553 21.9205C61.7668 22.1963 61.9923 22.5543 62.1576 22.716C62.3222 22.8767 62.6416 23.0731 62.8681 23.1516C63.0946 23.2301 63.4024 23.293 63.5531 23.2921C63.7037 23.2902 63.9914 23.2447 64.1923 23.19C64.3932 23.1352 64.691 22.9909 64.8544 22.8703C65.0179 22.7498 65.2391 22.4767 65.345 22.263C65.4519 22.0493 65.5953 21.6082 65.6637 21.2813C65.756 20.8384 65.7878 19.7441 65.7905 13.2447H68.5302L68.4966 17.2401C68.4665 20.8895 68.4471 21.295 68.2791 21.9205C68.1786 22.2977 67.9823 22.832 67.8426 23.1078C67.7028 23.3836 67.3742 23.8365 67.1112 24.1123C66.8482 24.3881 66.4126 24.7277 66.1432 24.8667C65.8738 25.0055 65.427 25.179 65.1512 25.253C64.8754 25.3269 64.2992 25.4119 63.8727 25.4411C63.3658 25.4767 62.8426 25.4502 62.3658 25.3644C61.964 25.2922 61.4088 25.1279 61.133 24.9991C60.8572 24.8712 60.4106 24.5671 60.1412 24.3251C59.7869 24.0055 59.554 23.6822 59.2974 23.1534C59.0572 22.6584 58.8983 22.158 58.8042 21.6009C58.6955 20.9571 58.6654 19.9635 58.6663 17.0118L58.6672 13.2447H61.4069L61.4298 17.3314ZM49.5805 13.1662C50.3951 13.1589 51.3019 13.2091 51.8179 13.2886C52.2955 13.3635 52.87 13.4803 53.0964 13.5506C53.3229 13.62 53.7741 13.8118 54.101 13.9762C54.4791 14.1661 54.9304 14.5105 55.3441 14.9242C55.7094 15.2895 56.1037 15.7936 56.2453 16.0757C56.3841 16.3515 56.5759 16.8867 56.6718 17.2629C56.7905 17.7287 56.8471 18.2694 56.848 18.9525C56.849 19.505 56.7878 20.2658 56.7101 20.642C56.6325 21.0274 56.3943 21.6868 56.1669 22.1489C55.8446 22.8064 55.6334 23.0941 55.1147 23.5872C54.6864 23.9945 54.2416 24.3114 53.8042 24.5196C53.4398 24.6941 52.8343 24.9158 52.4572 25.0135C52.0809 25.1112 51.3403 25.242 50.8133 25.3041C50.1741 25.379 49.337 25.396 48.3019 25.3551C47.448 25.3222 46.6362 25.2749 46.2471 25.2082V19.3178C46.2471 14.6909 46.2718 13.4185 46.3613 13.3826C46.4243 13.3588 46.8654 13.3022 47.343 13.2584C47.8206 13.2146 48.827 13.1726 49.5805 13.1662ZM71.9092 13.2502C72.3869 13.2045 73.5576 13.1808 74.512 13.1963C75.7458 13.2174 76.3987 13.2685 76.7722 13.3726C77.0608 13.4529 77.5028 13.6219 77.754 13.747C78.0051 13.873 78.3834 14.1497 78.5943 14.3634C78.8053 14.5771 79.0563 14.936 79.1531 15.1625C79.2672 15.4292 79.3275 15.7817 79.3266 16.1671C79.3257 16.494 79.2674 16.905 79.1962 17.0803C79.1258 17.2565 78.9469 17.5588 78.7989 17.7533C78.651 17.9478 78.293 18.2556 78.0016 18.4382C77.7112 18.6208 77.4747 18.7799 77.4765 18.7927C77.4784 18.8055 77.6955 18.9105 77.9595 19.0265C78.2234 19.1425 78.617 19.3991 78.8343 19.5973C79.0526 19.7954 79.3322 20.1626 79.4555 20.4137C79.5898 20.6849 79.7028 21.1105 79.7339 21.4639C79.7722 21.8913 79.7421 22.211 79.627 22.6055C79.5394 22.9068 79.3752 23.2977 79.2637 23.4731C79.1514 23.6493 78.8782 23.9551 78.6581 24.1523C78.4371 24.3505 78.0097 24.6245 77.7083 24.7605C77.4069 24.8975 76.8106 25.084 76.3841 25.1753C75.7713 25.3069 75.1951 25.3425 73.6444 25.3434C72.564 25.3443 71.4855 25.3142 70.8133 25.2082V19.3178C70.8133 14.6922 70.838 13.4178 70.9275 13.3799C70.9905 13.3543 71.4316 13.2959 71.9092 13.2502ZM89.7631 19.1441C90.7677 22.387 91.5996 25.0986 91.6124 25.1699C91.6316 25.2776 91.3887 25.2994 88.7585 25.3021L88.5595 24.684C88.4499 24.3441 88.2343 23.6455 87.7996 22.1945L84.375 22.1889L83.4617 25.305L82.069 25.3021C80.7878 25.2994 80.68 25.2868 80.7202 25.1397C80.7448 25.0521 81.5668 22.3598 82.5467 19.158C83.5275 15.9561 84.3293 13.3159 84.3293 13.2903C84.3293 13.2657 85.1412 13.2455 87.9366 13.2474L89.7631 19.1441ZM95.9732 25.2539L93.2791 25.2995V13.2447H96.0188L95.9732 25.2539ZM73.5668 21.6566L73.5521 23.4274C75.1951 23.3324 75.5458 23.2648 75.9184 23.0995C76.1996 22.9735 76.491 22.7616 76.5978 22.6055C76.701 22.4548 76.819 22.1772 76.8592 21.989C76.9012 21.7918 76.8928 21.4822 76.8389 21.2584C76.7832 21.0247 76.6289 20.758 76.4508 20.5872C76.2882 20.431 75.9914 20.2393 75.7905 20.1607C75.5896 20.0822 75.0106 19.9881 74.5028 19.9516L73.5814 19.8849L73.5668 21.6566ZM50.1284 15.2658C49.6763 15.2713 49.2243 15.2941 49.1248 15.317C48.9458 15.3581 48.943 15.4298 48.9649 19.2785L48.9868 23.1991C49.3759 23.2932 49.9211 23.274 50.448 23.2164C51.1649 23.1388 51.5458 23.0464 51.9549 22.85C52.2563 22.7058 52.6829 22.4073 52.9021 22.1863C53.1213 21.9644 53.3932 21.5991 53.5056 21.3726C53.6188 21.1461 53.7558 20.7562 53.8115 20.505C53.8672 20.2539 53.9377 19.8219 53.9688 19.5461C53.9996 19.2703 53.9795 18.7151 53.9231 18.3132C53.8672 17.9114 53.7258 17.3771 53.6099 17.126C53.4939 16.8748 53.2279 16.4949 53.0188 16.2812C52.8106 16.0675 52.4654 15.8045 52.2517 15.6967C52.038 15.588 51.6581 15.4448 51.4069 15.3781C51.1558 15.3106 50.5805 15.2603 50.1284 15.2658ZM86.0519 15.4693C86.019 15.4501 85.9695 15.5059 85.9421 15.5954C85.9147 15.6841 85.806 16.126 85.701 16.578C85.5969 17.0301 85.3476 17.9854 85.1485 18.7014C84.9494 19.4174 84.7859 20.0438 84.7859 20.0941C84.7861 20.1507 85.2729 20.1854 86.0645 20.1854C87.0261 20.1854 87.343 20.1571 87.343 20.0712C87.343 20.0082 87.101 19.1142 86.8033 18.0849C86.5065 17.0556 86.2289 16.0537 86.1868 15.8592C86.1448 15.6639 86.0838 15.4895 86.0519 15.4693ZM73.5531 15.1625V17.9935C75.175 17.9479 75.4152 17.9032 75.7887 17.7178C76.0837 17.5708 76.3074 17.3789 76.4234 17.1716C76.522 16.9954 76.6053 16.6803 76.608 16.4703C76.6108 16.2237 76.5459 15.9981 76.4245 15.831C76.3213 15.6895 76.0537 15.4803 75.8309 15.3671C75.4875 15.1927 75.2809 15.1607 74.4891 15.1616L73.5531 15.1625Z" fill="#1A1819" />
  </g>
  <defs>
    <clipPath id="clip0_1_138">
      <rect width="96.0731" height="40" fill="white" />
    </clipPath>
  </defs>
</svg>